<svg width="914" height="400" fill="none" xmlns="http://www.w3.org/2000/svg">
  <path fill="#fff" d="M0 0h914v400H0z"/>
  <path d="M388.596 209h-4.32v-20.727h4.32V209zm5.265-16.215c-.73 0-1.327-.214-1.791-.642a2.115 2.115 0 01-.698-1.6c0-.647.233-1.176.698-1.586.464-.41 1.061-.615 1.791-.615.738 0 1.335.205 1.791.615.464.41.697.939.697 1.586 0 .656-.233 1.194-.697 1.613-.456.42-1.053.629-1.791.629zM395.993 209h-4.32v-14h4.32v14zm16.599 0h-4.307v-7.779c0-2.17-.775-3.254-2.324-3.254-.748 0-1.363.287-1.846.861-.483.574-.725 1.304-.725 2.188V209h-4.32v-14h4.32v2.215h.055c1.03-1.705 2.529-2.557 4.498-2.557 3.099 0 4.649 1.923 4.649 5.77V209zm15.449-5.77h-9.132c.145 2.033 1.426 3.049 3.841 3.049 1.541 0 2.894-.364 4.061-1.093v3.117c-1.294.692-2.976 1.039-5.045 1.039-2.26 0-4.015-.625-5.264-1.873-1.248-1.258-1.873-3.008-1.873-5.25 0-2.324.675-4.166 2.024-5.524 1.349-1.358 3.007-2.037 4.976-2.037 2.042 0 3.619.606 4.731 1.819 1.121 1.212 1.681 2.857 1.681 4.935v1.818zm-4.006-2.652c0-2.005-.811-3.008-2.433-3.008-.693 0-1.294.287-1.805.862-.501.574-.806 1.289-.916 2.146h5.154zM443.573 209h-4.307v-7.779c0-2.17-.774-3.254-2.324-3.254-.747 0-1.362.287-1.845.861-.484.574-.725 1.304-.725 2.188V209h-4.32v-14h4.32v2.215h.055c1.03-1.705 2.529-2.557 4.498-2.557 3.099 0 4.648 1.923 4.648 5.77V209zm9.544.342c-2.334 0-4.17-.652-5.51-1.955-1.331-1.313-1.996-3.09-1.996-5.332 0-2.315.692-4.125 2.078-5.428 1.385-1.313 3.258-1.969 5.619-1.969 2.324 0 4.147.656 5.469 1.969 1.321 1.303 1.982 3.031 1.982 5.182 0 2.324-.683 4.16-2.051 5.509-1.358 1.349-3.222 2.024-5.591 2.024zm.109-11.375c-1.021 0-1.814.351-2.379 1.053-.565.701-.848 1.695-.848 2.98 0 2.689 1.085 4.033 3.254 4.033 2.069 0 3.104-1.381 3.104-4.142 0-2.616-1.044-3.924-3.131-3.924zm11.963-5.182c-.729 0-1.326-.214-1.791-.642a2.118 2.118 0 01-.697-1.6c0-.647.233-1.176.697-1.586.465-.41 1.062-.615 1.791-.615.739 0 1.336.205 1.791.615.465.41.698.939.698 1.586 0 .656-.233 1.194-.698 1.613-.455.42-1.052.629-1.791.629zM467.322 209h-4.32v-14h4.32v14zm2.161-.369v-3.5a9.27 9.27 0 002.119.957c.711.21 1.381.314 2.01.314.766 0 1.367-.104 1.805-.314.446-.21.669-.529.669-.957 0-.274-.1-.501-.3-.684a2.774 2.774 0 00-.78-.478 8.179 8.179 0 00-1.025-.369c-.374-.11-.734-.233-1.08-.37a11.238 11.238 0 01-1.477-.669 4.589 4.589 0 01-1.066-.848 3.45 3.45 0 01-.656-1.108c-.146-.419-.219-.916-.219-1.49 0-.784.169-1.458.506-2.023a4.206 4.206 0 011.367-1.381 6.11 6.11 0 011.955-.793c.738-.173 1.504-.26 2.297-.26.62 0 1.249.05 1.887.151.638.091 1.267.227 1.886.41v3.336a6.611 6.611 0 00-1.763-.711 7.146 7.146 0 00-1.832-.246 3.82 3.82 0 00-.807.082 2.3 2.3 0 00-.656.218 1.137 1.137 0 00-.451.37.813.813 0 00-.164.505c0 .256.082.474.246.657.164.182.378.341.642.478.265.128.556.246.875.356.328.1.652.205.971.314.574.201 1.094.419 1.559.656.464.237.861.515 1.189.834.337.319.592.693.766 1.121.182.429.273.939.273 1.532 0 .829-.182 1.54-.547 2.133a4.327 4.327 0 01-1.435 1.435c-.593.365-1.281.629-2.065.793-.775.173-1.581.26-2.42.26-1.54 0-2.967-.237-4.279-.711zm25.266-5.401h-9.133c.146 2.033 1.427 3.049 3.842 3.049 1.54 0 2.894-.364 4.061-1.093v3.117c-1.295.692-2.976 1.039-5.045 1.039-2.261 0-4.015-.625-5.264-1.873-1.249-1.258-1.873-3.008-1.873-5.25 0-2.324.674-4.166 2.023-5.524 1.349-1.358 3.008-2.037 4.977-2.037 2.042 0 3.618.606 4.73 1.819 1.122 1.212 1.682 2.857 1.682 4.935v1.818zm-4.006-2.652c0-2.005-.811-3.008-2.433-3.008-.693 0-1.295.287-1.805.862-.501.574-.807 1.289-.916 2.146h5.154z" fill="#333"/>
  <path d="M498.004 209.273c-.365 0-.675-.127-.93-.382a1.268 1.268 0 01-.383-.93c0-.374.123-.688.369-.943a1.28 1.28 0 01.944-.383c.182 0 .35.036.505.109.164.064.306.155.424.274a1.297 1.297 0 01.397.943c0 .182-.037.355-.11.519a1.447 1.447 0 01-.287.411c-.118.118-.26.209-.424.273a1.169 1.169 0 01-.505.109zm16.352-1.353c0 2.598-.593 4.521-1.778 5.769-1.175 1.258-2.994 1.887-5.455 1.887a9.598 9.598 0 01-4.347-1.025v-1.778c1.522.848 2.971 1.272 4.347 1.272 3.655 0 5.483-1.932 5.483-5.797v-1.682h-.055c-1.076 1.842-2.716 2.762-4.922 2.762-.866 0-1.659-.159-2.379-.478a5.142 5.142 0 01-1.832-1.381c-.51-.602-.907-1.331-1.189-2.188-.283-.866-.424-1.841-.424-2.926 0-1.148.15-2.192.451-3.13.301-.948.729-1.76 1.285-2.434a5.69 5.69 0 012.01-1.559c.793-.373 1.682-.56 2.666-.56 1.978 0 3.423.802 4.334 2.406h.055V195h1.75v12.92zm-1.75-7.424a4.37 4.37 0 00-1.19-3.021 4.098 4.098 0 00-1.34-.93 3.973 3.973 0 00-1.695-.356c-.729 0-1.39.142-1.982.424a4.356 4.356 0 00-1.504 1.203c-.41.52-.729 1.153-.957 1.901-.219.738-.328 1.572-.328 2.502 0 .857.104 1.631.314 2.324.21.693.506 1.281.889 1.764a4 4 0 001.381 1.121 4.124 4.124 0 001.818.396c.693 0 1.322-.123 1.887-.369a4.383 4.383 0 001.449-1.039c.401-.447.711-.966.93-1.559a5.65 5.65 0 00.328-1.941v-2.42zm11.43 8.832c-1.039 0-1.973-.173-2.803-.519a6.04 6.04 0 01-2.105-1.463 6.534 6.534 0 01-1.34-2.284c-.31-.884-.465-1.863-.465-2.939 0-1.167.164-2.21.492-3.131.328-.92.793-1.7 1.395-2.338a6 6 0 012.201-1.476c.857-.338 1.814-.506 2.871-.506 1.012 0 1.923.168 2.734.506.812.328 1.5.806 2.065 1.435s.998 1.395 1.299 2.297c.3.902.451 1.928.451 3.076 0 1.094-.16 2.092-.479 2.994a6.655 6.655 0 01-1.34 2.311 5.969 5.969 0 01-2.132 1.504c-.839.355-1.787.533-2.844.533zm.137-13.139c-.766 0-1.459.133-2.079.397a4.387 4.387 0 00-1.599 1.162c-.438.501-.775 1.121-1.012 1.859-.237.73-.355 1.559-.355 2.489 0 .875.118 1.663.355 2.365.237.702.57 1.303.998 1.805.438.501.966.888 1.586 1.162.62.264 1.313.396 2.078.396.784 0 1.477-.127 2.078-.383a4.208 4.208 0 001.532-1.134c.419-.502.733-1.112.943-1.832.219-.72.328-1.541.328-2.461 0-1.887-.419-3.327-1.258-4.321-.838-1.002-2.037-1.504-3.595-1.504z" fill="#555"/>
</svg>
