<svg width="914" height="400" fill="none" xmlns="http://www.w3.org/2000/svg"><style>#CL0 {fill: #00ACD7;}#CL1 {fill: #333;}@media (prefers-color-scheme: dark) {#CL0 {fill: #00ACD7;}#CL1 {fill: #EEE;}}</style><path d="M373.486 208c-1.083 0-2.035-.224-2.856-.672a5.05 5.05 0 0 1-1.932-1.932c-.448-.821-.672-1.773-.672-2.856v-11.2h-4.9v-3.78h9.1v14.84c0 .541.149.98.448 1.316.317.336.728.504 1.232.504h4.34V208h-4.76Zm6.569 0v-3.78h5.096v-7.84h-4.536v-3.78h8.736v11.62h4.424V208h-13.72Zm7-17.836c-.766 0-1.382-.196-1.848-.588-.448-.392-.672-.924-.672-1.596s.224-1.204.672-1.596c.466-.392 1.082-.588 1.848-.588.765 0 1.372.196 1.82.588.466.392.7.924.7 1.596s-.234 1.204-.7 1.596c-.448.392-1.055.588-1.82.588ZM395.612 208v-15.4h4.06v2.94h1.232l-1.372.98c.018-1.251.42-2.259 1.204-3.024.802-.784 1.829-1.176 3.08-1.176 1.493 0 2.688.523 3.584 1.568.914 1.045 1.372 2.436 1.372 4.172V208h-4.2v-9.52c0-.803-.215-1.419-.644-1.848-.411-.448-.99-.672-1.736-.672-.747 0-1.335.224-1.764.672-.411.429-.616 1.045-.616 1.848V208h-4.2Zm22.249.28c-1.363 0-2.558-.252-3.584-.756-1.008-.523-1.792-1.241-2.352-2.156-.542-.933-.812-2.016-.812-3.248v-3.64c0-1.232.27-2.305.812-3.22a5.598 5.598 0 0 1 2.352-2.156c1.026-.523 2.221-.784 3.584-.784 1.362 0 2.538.261 3.528.784 1.008.504 1.782 1.223 2.324 2.156.56.915.84 1.988.84 3.22v2.856h-9.436v.784c0 .971.224 1.68.672 2.128.466.448 1.157.672 2.072.672.597 0 1.12-.093 1.568-.28.448-.187.709-.467.784-.84h4.116c-.299 1.344-1.036 2.427-2.212 3.248-1.176.821-2.595 1.232-4.256 1.232Zm2.688-9.156v-.7c0-.952-.224-1.689-.672-2.212-.43-.523-1.102-.784-2.016-.784-.915 0-1.606.271-2.072.812-.448.541-.672 1.288-.672 2.24v.364l5.712-.056-.28.336ZM426.95 208v-15.4h4.06v2.94h1.232l-1.372.98c.019-1.251.42-2.259 1.204-3.024.803-.784 1.829-1.176 3.08-1.176 1.493 0 2.688.523 3.584 1.568.915 1.045 1.372 2.436 1.372 4.172V208h-4.2v-9.52c0-.803-.215-1.419-.644-1.848-.411-.448-.989-.672-1.736-.672s-1.335.224-1.764.672c-.411.429-.616 1.045-.616 1.848V208h-4.2Zm22.221.28c-1.363 0-2.548-.252-3.556-.756-1.008-.523-1.792-1.241-2.352-2.156-.541-.933-.812-2.016-.812-3.248v-3.64c0-1.232.271-2.305.812-3.22a5.598 5.598 0 0 1 2.352-2.156c1.008-.523 2.193-.784 3.556-.784 1.381 0 2.567.261 3.556.784 1.008.504 1.783 1.223 2.324 2.156.56.915.84 1.988.84 3.22v3.64c0 1.232-.28 2.315-.84 3.248-.541.915-1.316 1.633-2.324 2.156-.989.504-2.175.756-3.556.756Zm0-3.64c.821 0 1.447-.215 1.876-.644.429-.448.644-1.073.644-1.876v-3.64c0-.821-.215-1.447-.644-1.876-.429-.429-1.055-.644-1.876-.644-.803 0-1.428.215-1.876.644-.429.429-.644 1.055-.644 1.876v3.64c0 .803.215 1.428.644 1.876.448.429 1.073.644 1.876.644ZM458.4 208v-3.78h5.096v-7.84h-4.536v-3.78h8.736v11.62h4.424V208H458.4Zm7-17.836c-.765 0-1.381-.196-1.848-.588-.448-.392-.672-.924-.672-1.596s.224-1.204.672-1.596c.467-.392 1.083-.588 1.848-.588.765 0 1.372.196 1.82.588.467.392.7.924.7 1.596s-.233 1.204-.7 1.596c-.448.392-1.055.588-1.82.588Zm14.465 18.116c-1.269 0-2.38-.196-3.332-.588-.952-.411-1.699-.971-2.24-1.68-.523-.709-.784-1.54-.784-2.492h4.116c0 .523.196.915.588 1.176.392.261.943.392 1.652.392h1.232c.765 0 1.353-.131 1.764-.392.429-.261.644-.635.644-1.12 0-.467-.168-.803-.504-1.008-.336-.224-.849-.373-1.54-.448l-3.528-.42c-1.363-.168-2.408-.672-3.136-1.512-.728-.859-1.092-1.923-1.092-3.192 0-1.549.504-2.716 1.512-3.5 1.008-.784 2.501-1.176 4.48-1.176h1.316c1.885 0 3.388.411 4.508 1.232s1.68 1.923 1.68 3.304h-4.116c0-.448-.187-.793-.56-1.036-.355-.243-.859-.364-1.512-.364h-1.316c-.653 0-1.148.121-1.484.364-.336.243-.504.579-.504 1.008 0 .429.159.719.476.868.336.149.803.261 1.4.336l3.36.42c1.512.187 2.651.719 3.416 1.596.765.877 1.148 2.035 1.148 3.472 0 1.512-.541 2.688-1.624 3.528-1.083.821-2.679 1.232-4.788 1.232h-1.232Zm16.341 0c-1.363 0-2.557-.252-3.584-.756-1.008-.523-1.792-1.241-2.352-2.156-.541-.933-.812-2.016-.812-3.248v-3.64c0-1.232.271-2.305.812-3.22a5.598 5.598 0 0 1 2.352-2.156c1.027-.523 2.221-.784 3.584-.784s2.539.261 3.528.784c1.008.504 1.783 1.223 2.324 2.156.56.915.84 1.988.84 3.22v2.856h-9.436v.784c0 .971.224 1.68.672 2.128.467.448 1.157.672 2.072.672.597 0 1.12-.093 1.568-.28.448-.187.709-.467.784-.84h4.116c-.299 1.344-1.036 2.427-2.212 3.248-1.176.821-2.595 1.232-4.256 1.232Zm2.688-9.156v-.7c0-.952-.224-1.689-.672-2.212-.429-.523-1.101-.784-2.016-.784s-1.605.271-2.072.812c-.448.541-.672 1.288-.672 2.24v.364l5.712-.056-.28.336Z" id="CL1"/><path d="M511.847 208.28c-.709 0-1.288-.215-1.736-.644-.429-.429-.644-.98-.644-1.652 0-.709.215-1.288.644-1.736.448-.448 1.027-.672 1.736-.672.71 0 1.279.224 1.708.672.448.448.672 1.027.672 1.736 0 .672-.224 1.223-.672 1.652-.429.429-.998.644-1.708.644Zm11.721 4.76v-2.464h4.34c.84 0 1.512-.243 2.016-.728.504-.467.756-1.111.756-1.932v-1.288l.056-2.66h-.028c-.186.952-.644 1.689-1.372 2.212-.709.523-1.624.784-2.744.784-1.586 0-2.837-.504-3.752-1.512-.914-1.027-1.372-2.427-1.372-4.2v-3.164c0-1.773.458-3.173 1.372-4.2.915-1.045 2.166-1.568 3.752-1.568 1.083 0 1.979.261 2.688.784.728.523 1.195 1.241 1.4 2.156h.028v-2.66h2.716v15.344c0 1.568-.494 2.809-1.484 3.724-.989.915-2.333 1.372-4.032 1.372h-4.34Zm3.892-8.4c.99 0 1.774-.308 2.352-.924.579-.616.868-1.484.868-2.604v-2.884c0-1.101-.289-1.96-.868-2.576-.578-.616-1.362-.924-2.352-.924-1.026 0-1.82.299-2.38.896-.56.579-.84 1.372-.84 2.38v3.36c0 1.008.28 1.811.84 2.408.56.579 1.354.868 2.38.868Zm15.725 3.584c-1.885 0-3.388-.541-4.508-1.624-1.101-1.083-1.652-2.595-1.652-4.536v-3.528c0-1.941.551-3.453 1.652-4.536 1.12-1.083 2.623-1.624 4.508-1.624 1.886 0 3.379.541 4.48 1.624 1.12 1.083 1.68 2.595 1.68 4.536v3.528c0 1.941-.56 3.453-1.68 4.536-1.101 1.083-2.594 1.624-4.48 1.624Zm0-2.436c1.046 0 1.867-.289 2.464-.868.616-.597.924-1.465.924-2.604v-4.032c0-1.139-.308-1.997-.924-2.576-.597-.597-1.418-.896-2.464-.896-1.045 0-1.876.299-2.492.896-.597.579-.896 1.437-.896 2.576v4.032c0 1.139.299 2.007.896 2.604.616.579 1.447.868 2.492.868Z" id="CL0"/></svg>